<svg width="83" height="103" viewBox="0 0 83 103" fill="none" xmlns="http://www.w3.org/2000/svg">
<path fill-rule="evenodd" clip-rule="evenodd" d="M23.3539 11.4745C29.6902 5.13825 32.8583 1.97011 36.5116 0.783096C39.7251 -0.261032 43.1866 -0.261032 46.4001 0.783096C50.0534 1.97011 53.2215 5.13825 59.5578 11.4745L71.4372 23.3539C77.7734 29.6902 80.9416 32.8583 82.1286 36.5116C83.1727 39.7251 83.1727 43.1866 82.1286 46.4001C81.5859 48.0704 80.6291 49.6392 79.1447 51.4558C80.6291 53.2724 81.5859 54.8413 82.1286 56.5115C83.1727 59.725 83.1727 63.1866 82.1286 66.4001C80.9416 70.0533 77.7734 73.2215 71.4372 79.5577L59.5578 91.4371C53.2215 97.7734 50.0534 100.942 46.4001 102.129C43.1866 103.173 39.7251 103.173 36.5116 102.129C32.8583 100.942 29.6902 97.7734 23.3539 91.4371L11.4745 79.5577C5.13825 73.2215 1.97011 70.0533 0.783096 66.4001C-0.261032 63.1866 -0.261032 59.725 0.783096 56.5115C1.3258 54.8413 2.28262 53.2724 3.767 51.4558C2.28263 49.6392 1.3258 48.0704 0.783096 46.4001C-0.261032 43.1866 -0.261032 39.7251 0.783096 36.5116C1.97011 32.8583 5.13824 29.6902 11.4745 23.3539L11.4745 23.3539L23.3539 11.4745ZM12.7824 60.8657C12.929 61.6352 13.1325 62.3966 13.3931 63.1435C14.5987 66.5986 17.6205 69.6205 23.6642 75.6641L23.6642 75.6642C29.7079 81.7079 32.7298 84.7297 36.1849 85.9353C39.598 87.1261 43.3137 87.1261 46.7267 85.9353C50.1819 84.7297 53.2038 81.7079 59.2475 75.6642C65.2912 69.6205 68.313 66.5986 69.5186 63.1435C69.7792 62.3966 69.9827 61.6352 70.1293 60.8657L59.5578 71.4372C53.2215 77.7734 50.0534 80.9416 46.4001 82.1286C43.1866 83.1727 39.7251 83.1727 36.5116 82.1286C32.8583 80.9416 29.6902 77.7734 23.3539 71.4372L12.7824 60.8657ZM23.6642 20.081C29.7079 14.0373 32.7298 11.0154 36.1849 9.80988C39.598 8.61904 43.3137 8.61904 46.7267 9.80988C50.1819 11.0154 53.2038 14.0373 59.2475 20.081C65.2912 26.1247 68.313 29.1465 69.5186 32.6017C70.7094 36.0147 70.7094 39.7304 69.5186 43.1435C68.313 46.5987 65.2912 49.6205 59.2475 55.6642C53.2038 61.7079 50.1819 64.7298 46.7267 65.9353C43.3137 67.1261 39.598 67.1261 36.1849 65.9353C32.7298 64.7298 29.7079 61.7079 23.6642 55.6642C17.6205 49.6205 14.5987 46.5987 13.3931 43.1435C12.2023 39.7304 12.2023 36.0147 13.3931 32.6017C14.5987 29.1465 17.6205 26.1247 23.6642 20.081Z" fill="black"/>
</svg>
